<?xml version="1.0" encoding="UTF-8"?>
<svg width="40px" height="40px" viewBox="0 0 40 40" version="1.1" xmlns="http://www.w3.org/2000/svg" xmlns:xlink="http://www.w3.org/1999/xlink">
    <!-- Generator: Sketch 55.2 (78181) - https://sketchapp.com -->
    <title>Group 2</title>
    <desc>Created with Sketch.</desc>
    <g id="Dark" stroke="none" stroke-width="1" fill="none" fill-rule="evenodd">
        <g id="Loading-Modal" transform="translate(-700.000000, -372.000000)">
            <g id="Group" transform="translate(481.000000, 331.000000)">
                <g id="Group-2" transform="translate(219.000000, 41.000000)">
                    <circle id="Oval" fill="#FCC62D" cx="20" cy="20" r="20"></circle>
                    <g id="clock-circular-outline" transform="translate(10.000000, 10.000000)" fill="#494D57" fill-rule="nonzero">
                        <path d="M9.91428571,0 C4.44755102,0 0,4.44755102 0,9.91428571 C0,15.3810204 4.44755102,19.8285714 9.91428571,19.8285714 C15.3810204,19.8285714 19.8285714,15.3810204 19.8285714,9.91428571 C19.8285714,4.44755102 15.3810204,0 9.91428571,0 Z M9.91428571,17.7189796 C5.61081633,17.7189796 2.10938776,14.2179592 2.10938776,9.91428571 C2.10938776,5.61061224 5.61081633,2.10959184 9.91428571,2.10959184 C14.2177551,2.10959184 17.7191837,5.61061224 17.7191837,9.91428571 C17.7191837,14.2179592 14.2177551,17.7189796 9.91428571,17.7189796 Z" id="Shape"></path>
                        <path d="M15.0812245,9.60816327 L10.6257143,9.60816327 L10.6257143,4.25102041 C10.6257143,3.80020408 10.2602041,3.43469388 9.80938776,3.43469388 C9.35857143,3.43469388 8.99306122,3.80020408 8.99306122,4.25102041 L8.99306122,10.4244898 C8.99306122,10.8753061 9.35857143,11.2408163 9.80938776,11.2408163 L15.0812245,11.2408163 C15.5320408,11.2408163 15.897551,10.8753061 15.897551,10.4244898 C15.897551,9.97367347 15.5320408,9.60816327 15.0812245,9.60816327 Z" id="Path"></path>
                    </g>
                </g>
            </g>
        </g>
    </g>
</svg>