<svg xmlns="http://www.w3.org/2000/svg" width="40" height="40" viewBox="0 0 40 40">
    <g fill="none" fill-rule="evenodd">
        <circle cx="20" cy="20" r="20" fill="#C99E48"/>
        <path fill="#FFF" fill-rule="nonzero" d="M28.462 13.077H11.24c-.744 0-1.405-.149-1.405-.846l18.626-.846V9.692C28.462 8.291 27.325 8 25.923 8L10.71 10.538C9.354 10.84 9 11.414 9 12.231v15.23A2.54 2.54 0 0 0 11.538 30h16.924A2.54 2.54 0 0 0 31 27.462V15.615a2.54 2.54 0 0 0-2.538-2.538zm-.847 10.154a1.691 1.691 0 1 1 0-3.385 1.691 1.691 0 1 1 0 3.385z"/>
    </g>
</svg>
