<?xml version="1.0" encoding="UTF-8"?>
<svg width="40px" height="40px" viewBox="0 0 40 40" version="1.1" xmlns="http://www.w3.org/2000/svg" xmlns:xlink="http://www.w3.org/1999/xlink">
    <!-- Generator: Sketch 55.2 (78181) - https://sketchapp.com -->
    <title>Group 2</title>
    <desc>Created with Sketch.</desc>
    <g id="Dark" stroke="none" stroke-width="1" fill="none" fill-rule="evenodd">
        <g id="Warning-Modal(explorer)" transform="translate(-700.000000, -372.000000)">
            <g id="Group" transform="translate(481.000000, 331.000000)">
                <g id="Group-2" transform="translate(219.000000, 41.000000)">
                    <circle id="Oval" fill="#FCC62D" cx="20" cy="20" r="20"></circle>
                    <g id="warning" transform="translate(10.000000, 9.000000)" fill="#494D57" fill-rule="nonzero">
                        <path d="M9.98870637,13.3133727 C10.5513347,13.3133727 11.0154004,13.7934293 10.9907598,14.4009346 C11.0154004,14.9532122 10.526694,15.4375171 9.98870637,15.4375171 C9.4301848,15.4375171 8.96201232,14.9532122 8.96201232,14.3754449 C8.96201232,13.7976776 9.4301848,13.3133727 9.98870637,13.3133727 Z M19.4917864,17.0773566 C18.8429158,18.2371395 17.6889117,18.9296106 16.4034908,18.9296106 L3.55749487,18.9296106 C2.2761807,18.9296106 1.13039014,18.2456361 0.48973306,17.1070946 C-0.159137577,15.9558084 -0.163244353,14.5751145 0.477412731,13.4153316 L6.91683778,1.88122728 C7.55338809,0.729940996 8.70328542,0.037469908 9.99281314,0.037469908 C11.2823409,0.037469908 12.4322382,0.725692707 13.0687885,1.88547557 L19.5,13.406835 C20.1406571,14.553873 20.1365503,15.9260703 19.4917864,17.0773566 Z M18.0954825,16.244692 C18.4486653,15.611697 18.4527721,14.8639981 18.1078029,14.2437479 L11.6724846,2.7138919 C11.3234086,2.08089686 10.6950719,1.70279915 9.99281314,1.70279915 C9.28644764,1.70279915 8.66221766,2.07664857 8.31314168,2.70964362 L1.87371663,14.2394996 C1.52053388,14.876743 1.52464066,15.6329384 1.87782341,16.2659334 C2.22689938,16.8904319 2.85523614,17.260033 3.55338809,17.260033 L16.399384,17.260033 C17.1057495,17.260033 17.738193,16.8819353 18.0954825,16.244692 Z M9.73408624,5.85762568 C10.2227926,5.73867359 10.711499,5.98082606 10.9209446,6.45663441 C10.9907598,6.62656597 11.0154004,6.79649752 11.0154004,6.98767052 C10.9907598,7.51870663 10.9455852,8.04974274 10.9209446,8.58077885 C10.87577,9.40069861 10.8264887,10.2206184 10.7813142,11.0405381 C10.7566735,11.3081803 10.7566735,11.5503328 10.7566735,11.8137267 C10.7361396,12.2513004 10.4075975,12.5869153 9.98870637,12.5869153 C9.5698152,12.5869153 9.24537988,12.2725419 9.22073922,11.8392164 C9.15092402,10.5604815 9.08110883,9.30723625 9.01129363,8.0285013 C8.98665298,7.69288648 8.9661191,7.35302337 8.94147844,7.01740854 C8.94147844,6.4608827 9.24537988,6.0020675 9.73408624,5.85762568 Z" id="Combined-Shape"></path>
                    </g>
                </g>
            </g>
        </g>
    </g>
</svg>